<svg xmlns="http://www.w3.org/2000/svg" width="64" height="64" viewBox="0 0 64 64">
	<defs>
		<linearGradient id="a" x1="1.143" y1="48" x2="62.857" y2="12" gradientUnits="userSpaceOnUse">
			<stop stop-color="#0055a0" offset="0%"/>
			<stop stop-color="#004480" offset="100%"/>
		</linearGradient>
	</defs>
	<g>
		<path d="M22 20h-8c-1.2 0-2 .8-2 2s.8 2 2 2h8c1.2 0 2-.8 2-2s-.8-2-2-2zm0 8h-8c-1.2 0-2 .8-2 2s.8 2 2 2h8c1.2 0 2-.8 2-2s-.8-2-2-2zm0 8h-8c-1.2 0-2 .8-2 2s.8 2 2 2h8c1.2 0 2-.8 2-2s-.8-2-2-2zM61.6 8H44c-5.2 0-11.6 2-12 9.2C31.6 10 25.2 8 20 8H2.4C1.2 8 0 9.2 0 10.8v38.4C0 50.4 1.2 52 2.4 52H20c6.4 0 11.2 4 12 9.2.8-5.2 5.6-9.2 12-9.2h17.6c1.6 0 2.4-1.6 2.4-3.2v-38C64 9.2 62.8 8 61.6 8zM56 44H44c-6.4 0-11.6 3.2-12 8.8-.4-5.6-5.6-8.8-12-8.8H8V16h14c4.4 0 10 6 10 11.2C32 22 37.6 16 42 16h14z" fill="url(#a)"/>
	</g>
</svg>
